<svg xmlns="http://www.w3.org/2000/svg" width="512" height="512" viewBox="0 0 512 512" role="img" aria-label="CallCRM icon">
  <defs>
    <linearGradient id="g" x1="0" y1="0" x2="1" y2="1">
      <stop offset="0%" stop-color="#d6673a"/>
      <stop offset="100%" stop-color="#1f7a5f"/>
    </linearGradient>
  </defs>
  <rect width="512" height="512" rx="108" fill="#f7f4ea"/>
  <rect x="54" y="54" width="404" height="404" rx="90" fill="url(#g)"/>
  <path d="M186 150c-18 0-30 15-30 31v30c0 16 9 30 22 38l20 11c10 5 14 17 10 27l-8 19c-4 10 0 23 11 29 17 11 38 19 59 22 11 2 22-3 29-12l17-22c7-9 20-13 31-8l27 11c14 6 31 1 39-12l15-24c11-18 10-41-4-57-30-38-70-68-115-89-37-18-81-25-123-19z" fill="#fff" opacity="0.95"/>
</svg>
