<svg xmlns="http://www.w3.org/2000/svg" width="192" height="192" viewBox="0 0 192 192" role="img" aria-label="CallCRM icon">
  <defs>
    <linearGradient id="g" x1="0" y1="0" x2="1" y2="1">
      <stop offset="0%" stop-color="#d6673a"/>
      <stop offset="100%" stop-color="#1f7a5f"/>
    </linearGradient>
  </defs>
  <rect width="192" height="192" rx="42" fill="#f7f4ea"/>
  <rect x="20" y="20" width="152" height="152" rx="34" fill="url(#g)"/>
  <path d="M70 56c-6 0-11 5-11 11v12c0 5 3 10 7 12l8 4c3 2 4 6 3 9l-3 7c-1 3 0 7 3 9 6 4 13 7 20 8 3 0 6-1 8-4l6-8c2-3 6-4 9-3l10 4c5 2 11 0 14-5l6-11c3-6 2-13-2-18-10-12-23-22-38-29-12-6-26-8-40-6z" fill="#fff" opacity="0.95"/>
</svg>
